<?xml version="1.0" encoding="UTF-8" standalone="no"?>
<svg width="256px" height="289px" viewBox="0 0 256 289" version="1.1" xmlns="http://www.w3.org/2000/svg" xmlns:xlink="http://www.w3.org/1999/xlink" preserveAspectRatio="xMidYMid">
    <g>
        <path d="M128,0C57.3,0,0,57.3,0,128s57.3,128,128,128s128-57.3,128-128S198.7,0,128,0z M128,238.4c-35.2,0-63.9-28.7-63.9-63.9 c0-35.2,28.7-63.9,63.9-63.9c35.2,0,63.9,28.7,63.9,63.9C191.9,209.7,163.2,238.4,128,238.4z M171.3,108.9l-13.3,13.3 c-2.5,2.5-5.8,3.9-9.3,3.9c-3.5,0-6.8-1.3-9.3-3.9l-29.3-29.3c-5-5-5-13.1,0-18.1s13.1-5,18.1,0l16,16v-8.6c0-4.8,3.9-8.6,8.6-8.6 c4.8,0,8.6,3.9,8.6,8.6v24.6l16-16c5-5,13.1-5,18.1,0S176.3,103.9,171.3,108.9z" fill="#2496ED"/> 
    </g>
</svg>